<?xml version="1.0" encoding="UTF-8" standalone="no"?><!DOCTYPE svg PUBLIC "-//W3C//DTD SVG 1.1//EN" "http://www.w3.org/Graphics/SVG/1.1/DTD/svg11.dtd"><svg width="100%" height="100%" viewBox="0 0 100 100" version="1.1" xmlns="http://www.w3.org/2000/svg" xmlns:xlink="http://www.w3.org/1999/xlink" xml:space="preserve" style="fill-rule:evenodd;clip-rule:evenodd;stroke-linecap:round;stroke-miterlimit:10;"><g id="Layer_1"><path d="M100,15.5c0,-8.555 -6.945,-15.5 -15.5,-15.5l-69,0c-8.555,0 -15.5,6.945 -15.5,15.5l0,69c0,8.555 6.945,15.5 15.5,15.5l69,0c8.555,0 15.5,-6.945 15.5,-15.5l0,-69Z" style="fill:#0a94c2;"/><path d="M27.58,79l52.84,0l-52.84,-50.98l0,50.98Z" style="fill:#b4d9e7;fill-rule:nonzero;"/><path d="M27.58,79c22.21,-10.25 42.7,-14 42.7,-31.15c0,-17 -29.07,-19.83 -42.7,-19.83" style="fill:#eee4d3;fill-rule:nonzero;"/><path d="M50.5,55.12c-3.36,0 -6.125,-2.765 -6.125,-6.125c0,-3.36 2.765,-6.125 6.125,-6.125" style="fill:none;stroke:#015170;stroke-width:1px;"/><circle cx="57.05" cy="42.8" r="1.83" style="fill:none;stroke:#015170;stroke-width:1px;"/><circle cx="57.05" cy="55.2" r="1.83" style="fill:none;stroke:#015170;stroke-width:1px;"/><path d="M27.58,28.02l0,50.98l39.89,-60l-39.89,9.02Z" style="fill:#b4d9e7;fill-rule:nonzero;"/></g></svg>